<?xml version="1.0" standalone="no"?>
<!DOCTYPE svg PUBLIC "-//W3C//DTD SVG 20010904//EN"
 "http://www.w3.org/TR/2001/REC-SVG-20010904/DTD/svg10.dtd">
<svg version="1.0" xmlns="http://www.w3.org/2000/svg"
 width="2686.000000pt" height="2686.000000pt" viewBox="0 0 2686.000000 2686.000000"
 preserveAspectRatio="xMidYMid meet">
<metadata>
Created by potrace 1.11, written by Peter Selinger 2001-2013
</metadata>
<g transform="translate(0.000000,2686.000000) scale(0.100000,-0.100000)"
fill="#000000" stroke="none">
<path d="M12605 17521 c-229 -65 -270 -84 -600 -281 -126 -75 -270 -158 -320
-184 -49 -26 -147 -88 -217 -137 -123 -86 -176 -115 -282 -154 -27 -10 -88
-44 -136 -76 -103 -69 -300 -254 -260 -245 14 4 58 13 98 21 97 19 155 47 287
140 171 119 305 206 349 226 23 10 74 25 114 34 59 14 103 35 225 109 84 51
208 130 277 176 140 94 229 138 343 169 173 49 239 46 429 -15 147 -48 233
-88 362 -169 132 -83 282 -154 406 -194 52 -16 338 -98 636 -180 901 -251
1631 -471 1864 -561 162 -63 290 -136 600 -339 433 -285 468 -304 705 -381
264 -85 277 -89 370 -109 107 -23 167 -48 337 -142 155 -86 233 -114 358 -128
117 -14 190 -34 255 -70 91 -51 177 -78 465 -150 157 -38 350 -91 430 -116 80
-25 256 -79 391 -120 376 -114 521 -171 644 -255 114 -78 216 -111 550 -175
127 -24 295 -58 375 -74 207 -44 413 -73 925 -131 838 -95 917 -111 1432 -301
743 -274 1121 -363 1473 -345 159 8 252 30 614 145 357 113 387 119 514 103
148 -19 169 -17 203 17 26 26 29 36 29 94 0 57 -3 68 -27 92 l-28 28 -125 -6
c-145 -8 -160 -10 -713 -119 l-417 -82 -86 12 c-118 17 -275 67 -496 156 -280
113 -431 156 -842 236 -172 34 -338 81 -455 129 -40 17 -110 39 -155 48 -86
18 -91 18 -781 13 -408 -4 -754 11 -915 39 -63 11 -198 46 -300 76 -102 31
-255 70 -340 86 -568 110 -683 144 -772 224 -75 67 -122 88 -366 160 -119 36
-253 78 -297 95 -82 30 -253 75 -665 175 -268 65 -810 240 -1100 356 -179 71
-313 135 -752 363 -231 119 -413 202 -660 300 -250 99 -324 125 -1213 426
-1648 558 -1570 529 -1813 677 -165 99 -223 126 -373 169 -68 19 -162 51 -209
70 -186 78 -270 96 -345 75z"/>
<path d="M12028 16880 c-158 -64 -378 -179 -390 -204 -7 -18 -4 -36 15 -81 13
-32 22 -66 20 -76 -12 -44 -225 -239 -261 -239 -8 0 -44 28 -80 63 -89 85
-121 106 -178 116 -104 20 -216 -21 -382 -136 -181 -125 -257 -187 -387 -318
-103 -103 -150 -142 -223 -185 -160 -94 -302 -229 -302 -286 0 -23 3 -24 63
-24 56 0 68 4 130 45 39 25 144 74 240 111 95 37 190 76 212 87 65 32 133 88
182 150 25 32 81 99 125 148 43 50 95 116 115 147 56 90 71 102 117 102 60 -1
108 -22 168 -72 90 -77 108 -83 233 -82 80 0 121 5 149 17 21 9 40 17 42 17 2
0 10 -13 19 -30 17 -33 61 -60 99 -60 37 0 158 46 278 106 113 57 138 64 138
39 0 -51 -81 -153 -189 -237 -188 -146 -211 -203 -156 -377 16 -51 23 -90 19
-107 -4 -16 -34 -48 -76 -83 -38 -31 -71 -66 -75 -79 -7 -28 31 -71 92 -107
54 -32 97 -38 178 -26 114 16 127 -5 45 -69 -70 -54 -98 -95 -98 -142 0 -35 4
-40 68 -83 131 -86 146 -90 328 -90 l160 0 33 -37 c55 -63 115 -70 325 -38
211 33 301 22 363 -42 65 -68 67 -113 13 -271 -44 -126 -49 -176 -23 -203 14
-14 29 -16 93 -10 41 3 90 9 108 12 17 4 32 2 31 -2 0 -5 -35 -37 -79 -71 -62
-49 -82 -72 -96 -108 -12 -32 -14 -49 -7 -56 6 -6 43 -15 83 -20 40 -5 74 -10
76 -12 2 -1 -8 -38 -20 -82 -59 -201 -114 -262 -309 -340 -79 -32 -423 -121
-749 -195 -123 -28 -163 -23 -275 36 -117 61 -138 60 -238 -15 -43 -33 -98
-65 -122 -71 -68 -20 -173 -7 -333 40 -131 39 -156 43 -255 44 -60 0 -164 -8
-230 -18 -105 -16 -156 -18 -403 -12 -235 6 -311 4 -445 -10 l-163 -18 -226
38 c-316 51 -344 53 -395 28 l-40 -21 -304 44 c-455 67 -611 101 -686 151
l-24 15 21 33 c33 54 27 70 -60 161 -90 94 -98 118 -51 158 16 13 63 35 105
48 42 13 76 27 76 32 0 20 -87 90 -152 121 -83 39 -157 60 -305 85 l-102 18
-59 -56 c-45 -43 -61 -67 -70 -102 -6 -25 -24 -63 -40 -85 -51 -69 -184 -124
-304 -124 -49 0 -70 7 -152 50 -173 91 -217 70 -351 -170 -39 -70 -90 -145
-115 -170 -43 -43 -54 -48 -230 -102 -102 -32 -215 -64 -251 -73 -69 -15 -394
-55 -454 -55 -44 0 -54 20 -30 58 45 71 352 345 551 493 106 79 130 105 145
162 13 49 64 103 105 112 16 4 94 25 174 47 80 22 213 57 295 78 350 89 497
153 1225 532 708 369 1020 541 1280 706 192 121 226 139 305 163 200 60 483
251 675 454 34 36 32 35 -111 -38 -178 -90 -384 -178 -590 -252 -552 -199
-650 -242 -1255 -558 -416 -217 -640 -313 -959 -412 -294 -91 -436 -123 -1345
-300 -666 -129 -804 -161 -1040 -237 -294 -95 -480 -134 -778 -163 -203 -20
-265 -30 -387 -62 -136 -35 -203 -63 -474 -197 -172 -85 -273 -127 -380 -162
-80 -25 -200 -63 -266 -85 -66 -21 -138 -39 -160 -39 -22 0 -148 21 -279 46
-242 46 -267 53 -570 169 -112 43 -167 58 -220 62 l-72 6 -47 -42 c-61 -52
-112 -81 -228 -132 -203 -88 -450 -163 -724 -219 -170 -35 -307 -88 -423 -163
l-72 -47 2 -1952 3 -1953 13410 0 13410 0 0 1470 0 1470 -245 22 c-808 74
-953 91 -1154 140 l-149 36 -68 62 c-55 52 -79 67 -133 84 -107 33 -179 41
-379 41 -318 0 -470 -26 -732 -125 -224 -85 -457 -163 -540 -180 -160 -33
-329 -12 -641 81 -104 30 -255 73 -336 95 -326 87 -589 202 -883 387 -200 126
-314 165 -533 182 -139 11 -166 16 -422 65 -526 102 -747 116 -849 54 -53 -32
-58 -62 -26 -164 6 -19 1 -20 -172 -24 -98 -2 -266 -4 -373 -5 -230 -1 -729
31 -748 48 -10 9 -5 33 23 116 39 113 53 219 37 262 -7 16 -45 50 -100 87
-223 153 -625 524 -694 642 -48 80 -91 209 -123 367 -17 84 -38 151 -64 208
-77 163 -209 342 -312 421 -58 44 -342 174 -490 224 -143 48 -159 45 -324 -68
-47 -33 -106 -62 -158 -79 -77 -26 -97 -28 -321 -33 -145 -4 -241 -10 -243
-16 -7 -24 42 -79 112 -124 127 -83 212 -113 567 -200 213 -51 218 -54 218
-136 l0 -63 68 -22 c105 -35 139 -57 163 -109 30 -65 43 -77 139 -129 110 -61
175 -126 222 -223 42 -88 66 -109 218 -195 204 -114 245 -186 179 -315 -52
-102 -107 -102 -318 2 -138 68 -150 71 -216 72 -96 0 -129 -16 -133 -67 -2
-27 3 -48 21 -75 34 -51 80 -71 164 -71 63 0 72 -3 95 -27 15 -16 31 -40 37
-55 14 -36 -3 -52 -69 -68 -60 -14 -90 -47 -90 -97 0 -29 12 -47 79 -117 44
-46 83 -95 87 -110 12 -49 -4 -92 -50 -134 -88 -81 -238 -95 -357 -34 l-63 33
-26 -21 c-124 -100 -167 -115 -330 -114 -92 0 -150 8 -288 37 -292 62 -358 60
-466 -13 -32 -22 -67 -40 -77 -40 -10 0 -33 16 -51 36 -40 44 -78 64 -218 114
-59 21 -132 51 -162 66 -76 38 -157 42 -281 14 -84 -19 -103 -21 -144 -11 -25
7 -137 62 -247 124 -162 90 -210 122 -251 166 -27 29 -115 107 -195 171 -157
127 -254 222 -271 267 -25 65 17 166 108 259 32 33 117 105 188 161 183 141
227 183 263 251 41 77 67 173 49 184 -42 27 -169 -4 -247 -61 -161 -117 -279
-193 -296 -189 -43 8 -39 175 7 309 44 128 96 246 137 308 65 100 67 146 9
230 -38 57 -61 79 -210 202 -134 112 -156 135 -187 203 l-23 49 -64 -6 c-35
-4 -63 -2 -63 2 0 5 11 33 25 63 32 69 32 103 0 124 -25 16 -58 16 -168 -2
-44 -7 -68 9 -98 68 -23 45 -24 70 -3 109 23 46 15 108 -18 132 -27 20 -32 20
-142 8 -69 -7 -149 -9 -200 -5 -102 8 -110 1 -81 -78 l18 -50 -39 -40 c-65
-66 -116 -96 -270 -154 -205 -76 -304 -87 -304 -34 0 12 40 62 93 118 193 203
212 237 212 379 0 87 3 105 21 129 38 52 44 52 154 -1 85 -40 106 -47 128 -39
26 9 27 11 26 94 0 128 -36 185 -145 233 -78 34 -147 53 -261 71 -53 9 -120
25 -148 36 -70 27 -91 25 -202 -20z m-9912 -5260 c45 -5 134 -21 197 -36 126
-30 138 -28 158 23 8 21 15 23 74 23 36 0 65 -3 65 -7 -1 -5 -27 -136 -58
-293 l-58 -285 -65 -3 -65 -3 -11 97 c-27 226 -139 332 -342 322 -59 -3 -90
-10 -143 -35 -250 -118 -494 -630 -475 -998 10 -190 76 -304 214 -368 40 -18
65 -22 158 -22 182 0 198 19 275 316 53 206 59 249 35 269 -8 6 -48 17 -90 22
l-75 11 0 64 0 63 375 0 375 0 0 -70 0 -70 -44 0 c-82 0 -91 -18 -182 -379
l-59 -234 -80 -38 c-204 -95 -475 -142 -689 -119 -128 13 -205 34 -290 77
-163 81 -261 194 -323 369 -26 75 -28 87 -27 254 0 146 4 188 22 252 88 319
328 604 610 723 164 69 346 95 518 75z m3109 -72 c-15 -224 -55 -1328 -50
-1363 12 -88 80 -144 173 -145 l42 0 0 -70 0 -70 -415 0 -416 0 3 68 3 67 55
6 c74 8 115 31 129 71 11 28 30 208 31 276 l0 22 -228 0 -229 0 -49 -62 c-213
-274 -216 -286 -82 -306 l53 -7 3 -68 3 -67 -286 0 -285 0 0 70 0 70 38 0 c39
0 89 25 135 68 15 14 303 363 640 774 l612 748 63 0 62 0 -5 -82z m3803 56
c102 -26 182 -72 257 -148 123 -124 165 -240 165 -450 0 -176 -33 -312 -115
-481 -211 -434 -631 -703 -1024 -656 -212 26 -364 128 -450 303 -144 290 -65
689 203 1032 186 237 415 382 660 416 78 11 230 3 304 -16z m9657 16 c39 -5
114 -23 169 -40 54 -16 107 -30 119 -30 11 0 34 16 53 35 30 33 37 35 94 35
l62 0 -7 -37 c-4 -21 -32 -148 -63 -283 l-57 -245 -66 -3 -66 -3 -6 93 c-3 51
-13 114 -22 140 -21 60 -88 136 -140 159 -45 21 -138 25 -182 8 -35 -13 -90
-64 -110 -103 -22 -42 -22 -123 0 -167 27 -55 112 -149 225 -249 230 -205 312
-345 312 -537 0 -104 -14 -172 -52 -251 -75 -152 -232 -249 -445 -273 -126
-14 -230 0 -389 52 -67 22 -129 37 -137 33 -9 -3 -28 -21 -42 -40 -25 -33 -29
-34 -91 -34 -58 0 -65 2 -60 18 7 23 136 590 136 597 0 3 29 5 64 5 l64 0 6
-67 c11 -123 25 -187 56 -250 52 -105 133 -153 259 -153 85 1 134 23 192 87
50 56 69 105 69 180 0 87 -31 131 -238 334 -190 186 -248 259 -289 360 -67
166 -23 359 111 487 88 85 175 125 316 146 46 6 84 5 155 -4z m6759 0 c48 -6
135 -22 193 -35 140 -33 149 -33 174 10 21 34 22 35 86 35 l66 0 -7 -32 c-4
-18 -30 -159 -58 -313 -28 -154 -54 -283 -57 -288 -4 -4 -34 -4 -67 -1 l-61 6
-11 107 c-15 143 -41 212 -106 277 -61 62 -109 78 -211 72 -94 -6 -170 -44
-261 -131 -193 -182 -328 -503 -341 -813 -9 -196 21 -290 116 -376 68 -61 135
-82 250 -76 74 3 98 9 162 39 98 47 166 103 240 197 34 42 63 79 65 81 3 4
124 -89 124 -96 0 -12 -69 -102 -123 -159 -183 -196 -427 -285 -696 -254 -290
33 -494 202 -561 466 -25 96 -27 285 -5 402 87 458 449 829 860 881 98 12 128
12 229 1z m-21874 -89 l0 -68 -56 -7 c-88 -10 -111 -26 -123 -88 -9 -46 -53
-859 -47 -866 3 -3 646 793 670 829 51 80 35 116 -58 126 l-56 6 0 68 0 69
285 0 285 0 0 -70 c0 -66 -1 -70 -22 -70 -62 0 -104 -22 -168 -89 -36 -37
-328 -392 -650 -789 l-585 -721 -67 -1 -67 0 5 68 c3 37 18 361 35 719 23 515
27 662 18 698 -14 55 -63 101 -116 110 -89 14 -83 9 -83 80 l0 65 400 0 400 0
0 -69z m3469 -453 c130 -285 238 -518 241 -518 9 0 220 794 220 827 0 43 -35
66 -111 71 l-59 4 0 69 0 69 295 0 295 0 0 -70 0 -70 -52 0 c-65 0 -115 -24
-146 -69 -31 -47 -52 -119 -258 -874 l-179 -658 -63 3 -63 3 -287 612 c-198
422 -289 607 -294 595 -21 -50 -248 -925 -248 -955 0 -46 26 -65 106 -75 l59
-7 3 -68 3 -67 -296 0 -295 0 0 70 0 70 49 0 c99 0 148 38 185 144 31 87 294
1080 303 1141 12 90 -14 120 -113 133 l-59 7 -3 68 -3 67 267 -2 267 -3 236
-517z m3496 512 c246 -24 378 -92 444 -230 23 -49 26 -67 26 -160 0 -95 -3
-111 -29 -165 -56 -116 -197 -225 -351 -271 -33 -10 -62 -19 -64 -20 -8 -6
202 -616 221 -640 25 -31 65 -49 131 -59 l47 -7 0 -69 0 -69 -275 0 -274 0
-101 313 c-56 171 -113 348 -127 392 -25 80 -38 104 -48 93 -6 -5 -116 -409
-141 -515 -24 -105 -9 -128 94 -141 l57 -7 3 -68 3 -67 -416 0 -415 0 0 70 0
70 55 0 c107 0 152 40 193 170 25 78 265 970 293 1087 30 126 16 151 -91 162
l-55 6 -3 68 -3 67 358 0 c197 0 408 -5 468 -10z m2094 -22 c0 -18 -17 -139
-37 -268 l-37 -235 -66 -3 -66 -3 -7 65 c-19 186 -94 291 -224 312 -34 5 -41
3 -45 -12 -11 -35 -325 -1199 -342 -1262 -23 -92 -11 -107 100 -121 l50 -6 3
-67 3 -68 -411 0 -411 0 3 68 3 67 55 6 c72 8 121 32 144 70 24 40 366 1323
354 1327 -15 7 -112 -20 -168 -46 -74 -34 -175 -138 -220 -224 l-35 -68 -62 0
c-49 0 -63 3 -63 15 0 15 86 434 96 468 5 16 47 17 695 17 l689 0 -1 -32z
m901 -37 l0 -69 -70 -4 c-123 -7 -142 -34 -225 -339 -31 -112 -58 -212 -61
-221 -5 -17 11 -18 245 -18 229 0 250 1 255 18 54 185 110 411 113 458 5 58 4
63 -21 79 -15 10 -52 20 -84 24 l-57 6 -3 68 -3 67 741 0 740 0 0 -64 0 -64
-37 -7 c-100 -18 -104 -38 -101 -470 l3 -329 183 305 c179 301 182 306 182
363 0 99 -38 136 -137 136 l-33 0 0 65 0 65 366 0 367 0 -7 -46 c-3 -26 -6
-55 -6 -64 0 -13 -11 -19 -46 -23 -64 -7 -81 -28 -93 -112 -10 -76 -27 -683
-18 -675 15 15 405 680 413 705 20 61 -6 85 -92 85 l-44 0 0 65 0 65 939 0
940 0 -6 -32 c-3 -18 -26 -139 -52 -268 l-46 -235 -66 -3 -66 -3 -5 91 c-10
162 -68 237 -213 275 -66 17 -246 21 -274 5 -25 -13 -32 -33 -101 -295 -33
-126 -63 -236 -66 -244 -4 -11 12 -13 88 -8 51 3 111 11 132 18 55 19 137 97
175 168 l32 61 66 0 c48 0 64 -3 61 -12 -3 -7 -47 -156 -98 -330 l-93 -318
-59 0 -58 0 0 75 c0 133 -38 166 -197 173 l-92 4 -15 -53 c-59 -208 -146 -548
-146 -571 0 -21 6 -29 26 -34 43 -11 285 3 349 20 158 43 282 138 392 304 l55
82 65 0 c48 0 64 -3 60 -12 -2 -7 -39 -136 -82 -285 l-78 -273 -723 0 -724 0
0 69 0 69 70 4 c81 4 113 23 148 85 20 37 309 1085 333 1207 11 57 4 93 -21
106 -10 5 -51 14 -90 20 -101 14 -136 3 -197 -63 -31 -35 -207 -318 -492 -795
l-444 -742 -68 0 -67 0 4 93 c7 161 25 969 22 973 -2 2 -148 -237 -323 -531
l-319 -535 -64 0 -64 0 3 738 c4 791 5 784 -46 832 -34 32 -127 39 -190 15
-40 -15 -48 -24 -74 -78 -24 -53 -317 -1113 -336 -1219 -13 -72 11 -97 105
-107 l55 -6 3 -67 3 -68 -416 0 -415 0 0 70 0 70 58 0 c79 0 120 23 154 85 22
41 81 239 158 533 l8 32 -250 -2 -251 -3 -54 -200 c-80 -298 -95 -365 -88
-392 7 -30 58 -53 120 -53 l45 0 0 -70 0 -70 -415 0 -415 0 0 70 0 70 55 0
c98 0 146 35 181 132 19 52 309 1128 318 1179 4 20 2 48 -3 62 -11 28 -31 37
-106 46 l-50 6 -3 68 -3 67 416 0 415 0 0 -69z m7265 7 c-4 -35 -21 -155 -38
-268 l-32 -205 -66 -3 -66 -3 -7 65 c-19 186 -94 291 -224 312 -34 5 -41 3
-45 -12 -11 -35 -325 -1199 -342 -1262 -23 -92 -11 -107 100 -121 l50 -6 3
-67 3 -68 -411 0 -411 0 3 68 3 67 55 6 c72 8 121 32 144 70 24 40 366 1323
354 1327 -15 7 -112 -20 -168 -46 -74 -34 -175 -138 -220 -224 l-35 -68 -62 0
c-49 0 -63 3 -63 15 0 15 86 434 96 468 5 16 47 17 696 17 l690 0 -7 -62z
m1505 -7 l0 -69 -70 -4 c-86 -5 -115 -23 -152 -98 -31 -62 -341 -1219 -336
-1253 5 -31 55 -40 208 -34 109 4 150 9 216 31 96 31 182 84 246 154 49 52
123 159 133 193 6 16 16 19 81 19 41 0 74 -4 74 -9 0 -7 -101 -338 -161 -528
l-11 -33 -724 0 -724 0 0 69 0 69 70 4 c83 4 114 23 148 91 12 25 79 255 148
509 183 676 196 728 188 761 -7 35 -53 57 -117 57 l-44 0 -7 53 c-3 28 -6 60
-6 70 0 16 27 17 420 17 l420 0 0 -69z m1530 0 l0 -69 -70 -4 c-86 -5 -115
-23 -152 -98 -31 -62 -341 -1219 -336 -1253 5 -31 55 -40 208 -34 109 4 150 9
216 31 96 31 182 84 246 154 49 52 123 159 133 193 6 16 16 19 81 19 41 0 74
-4 74 -9 0 -7 -101 -338 -161 -528 l-11 -33 -724 0 -724 0 0 69 0 69 70 4 c83
4 114 23 148 91 12 25 79 255 148 509 183 676 196 728 188 761 -7 35 -53 57
-117 57 l-44 0 -7 53 c-3 28 -6 60 -6 70 0 16 27 17 420 17 l420 0 0 -69z"/>
<path d="M4638 10797 l-165 -202 155 -3 c85 -1 156 -1 157 0 3 4 23 402 21
405 -1 2 -77 -88 -168 -200z"/>
<path d="M8727 11446 c-116 -42 -210 -155 -322 -389 -115 -241 -187 -516 -189
-722 -1 -128 13 -187 57 -240 37 -45 81 -65 144 -65 71 0 115 16 180 64 104
76 201 227 286 446 117 299 171 625 128 771 -16 58 -64 117 -107 135 -42 18
-127 17 -177 0z"/>
<path d="M10329 11413 c-14 -37 -149 -527 -149 -541 0 -17 74 -15 140 4 119
33 207 130 236 260 41 188 -19 304 -158 304 -54 0 -59 -2 -69 -27z"/>
<path d="M10639 16353 c-13 -16 -12 -17 4 -4 9 7 17 15 17 17 0 8 -8 3 -21
-13z"/>
</g>
</svg>
